<svg xmlns="http://www.w3.org/2000/svg" xmlns:xlink="http://www.w3.org/1999/xlink" contentStyleType="text/css" data-diagram-type="DESCRIPTION" height="559px" preserveAspectRatio="none" style="width:706px;height:559px;background:#FFFFFF;" version="1.1" viewBox="0 0 706 559" width="706px" zoomAndPan="magnify"><defs/><g><!--entity action--><g class="entity" data-entity="action" data-source-line="4" data-uid="ent0002" id="entity_action"><polygon fill="#E4E4E4" points="16,26,76.3618,26,86.3618,45.534,76.3618,65.0679,16,65.0679" style="stroke:#171C1F;stroke-width:2;"/><text fill="#171C1F" font-family="sans-serif" font-size="14" lengthAdjust="spacing" textLength="40.3618" x="26" y="50.9659">action</text></g><!--entity actor--><g class="entity" data-entity="actor" data-source-line="5" data-uid="ent0003" id="entity_actor"><ellipse cx="150" cy="22" fill="#E4E4E4" rx="16" ry="16" style="stroke:#171C1F;stroke-width:2;"/><path d="M150,42 C154,42 157,42 161,38 C169,38 177,46 177,54 L177,58 C177,62 173,66 169,66 L131,66 C127,66 123,62 123,58 L123,54 C123,46 131,38 139,38 C143,42 146,42 150,42" fill="#E4E4E4" style="stroke:#171C1F;stroke-width:2;"/><text fill="#171C1F" font-family="sans-serif" font-size="14" lengthAdjust="spacing" textLength="33.8799" x="133.0601" y="82.9659">actor</text></g><!--entity actor/--><g class="entity" data-entity="actor/" data-source-line="6" data-uid="ent0004" id="entity_actor/"><ellipse cx="234.0439" cy="14.5" fill="#E4E4E4" rx="8" ry="8" style="stroke:#171C1F;stroke-width:2;"/><line style="stroke:#171C1F;stroke-width:2;" x1="232.1001" x2="241.8042" y1="22.2603" y2="12.5562"/><path d="M234.0439,22.5 L234.0439,49.5 M221.0439,30.5 L247.0439,30.5 M234.0439,49.5 L221.0439,64.5 M234.0439,49.5 L247.0439,64.5" fill="none" style="stroke:#171C1F;stroke-width:2;"/><text fill="#171C1F" font-family="sans-serif" font-size="14" lengthAdjust="spacing" textLength="39.0879" x="214.5" y="82.4659">actor/</text></g><!--entity agent--><g class="entity" data-entity="agent" data-source-line="7" data-uid="ent0005" id="entity_agent"><rect fill="#E4E4E4" height="39.0679" rx="7.5" ry="7.5" style="stroke:#171C1F;stroke-width:2;" width="58.0659" x="289" y="26"/><text fill="#171C1F" font-family="sans-serif" font-size="14" lengthAdjust="spacing" textLength="38.0659" x="299" y="50.9659">agent</text></g><!--entity artifact--><g class="entity" data-entity="artifact" data-source-line="8" data-uid="ent0006" id="entity_artifact"><rect fill="#E4E4E4" height="42.0679" rx="7.5" ry="7.5" style="stroke:#171C1F;stroke-width:2;" width="76.7458" x="382.5" y="24.5"/><polygon fill="#E4E4E4" points="442.2458,29.5,442.2458,43.5,454.2458,43.5,454.2458,35.5,448.2458,29.5,442.2458,29.5" style="stroke:#171C1F;stroke-width:2;"/><line style="stroke:#171C1F;stroke-width:2;" x1="448.2458" x2="448.2458" y1="29.5" y2="35.5"/><line style="stroke:#171C1F;stroke-width:2;" x1="454.2458" x2="448.2458" y1="35.5" y2="35.5"/><text fill="#171C1F" font-family="sans-serif" font-size="14" lengthAdjust="spacing" textLength="46.7458" x="392.5" y="52.4659">artifact</text></g><!--entity boundary--><g class="entity" data-entity="boundary" data-source-line="9" data-uid="ent0007" id="entity_boundary"><path d="M506.3849,24 L506.3849,48 M506.3849,36 L523.3849,36" fill="none" style="stroke:#171C1F;stroke-width:2;"/><ellipse cx="535.3849" cy="36" fill="#E4E4E4" rx="12" ry="12" style="stroke:#171C1F;stroke-width:2;"/><text fill="#171C1F" font-family="sans-serif" font-size="14" lengthAdjust="spacing" textLength="63.7698" x="495" y="66.9659">boundary</text></g><!--entity card--><g class="entity" data-entity="card" data-source-line="10" data-uid="ent0008" id="entity_card"><rect fill="#E4E4E4" height="25.0679" rx="7.5" ry="7.5" style="stroke:#171C1F;stroke-width:2;" width="48.9659" x="26.5" y="166.5"/><text fill="#171C1F" font-family="sans-serif" font-size="14" lengthAdjust="spacing" textLength="28.9659" x="36.5" y="184.4659">card</text></g><!--entity circle--><g class="entity" data-entity="circle" data-source-line="11" data-uid="ent0009" id="entity_circle"><ellipse cx="138" cy="179" fill="#E4E4E4" rx="8" ry="8" style="stroke:#171C1F;stroke-width:2;"/><text fill="#171C1F" font-family="sans-serif" font-size="14" lengthAdjust="spacing" textLength="34.3419" x="120.8291" y="210.9659">circle</text></g><!--entity cloud--><g class="entity" data-entity="cloud" data-source-line="12" data-uid="ent0010" id="entity_cloud"><path d="M210.0573,163.3667 C213.2689,156.8937 218.8035,156.4266 222.4042,162.9983 C225.9576,157.7113 231.1909,157.432 235.1225,162.5353 C237.8883,157.1442 242.7943,156.3199 246.0182,162.088 C250.4641,156.6392 256.2244,157.2961 258.8325,164.0224 C270.1628,164.1863 275.028,169.9474 269.614,180.8436 C272.5759,191.0559 270.0062,196.7425 258.3699,196.4102 C257.3933,203.342 251.5953,203.5686 247.333,199.7989 C245.9866,206.6956 240.7414,209.0807 235.0601,204.3905 C229.2613,209.4836 223.9505,207.604 221.8977,200.3856 C216.7335,205.1099 212.3966,203.5671 210.0558,197.3342 C199.8093,196.2214 196.743,188.1358 203.81,180.5719 C196.5042,172.7799 200.3874,164.9946 210.0573,163.3667" fill="#E4E4E4" style="stroke:#171C1F;stroke-width:2;"/><text fill="#171C1F" font-family="sans-serif" font-size="14" lengthAdjust="spacing" textLength="36.0639" x="215" y="184.4659">cloud</text></g><!--entity collections--><g class="entity" data-entity="collections" data-source-line="13" data-uid="ent0011" id="entity_collections"><rect fill="#E4E4E4" height="35.0679" rx="7.5" ry="7.5" style="stroke:#171C1F;stroke-width:2;" width="85.5237" x="305" y="163.5"/><rect fill="#E4E4E4" height="35.0679" rx="7.5" ry="7.5" style="stroke:#171C1F;stroke-width:2;" width="85.5237" x="301" y="159.5"/><text fill="#171C1F" font-family="sans-serif" font-size="14" lengthAdjust="spacing" textLength="69.5237" x="309" y="182.4659">collections</text></g><!--entity component--><g class="entity" data-entity="component" data-source-line="14" data-uid="ent0012" id="entity_component"><rect fill="#E4E4E4" height="39.0679" rx="7.5" ry="7.5" style="stroke:#171C1F;stroke-width:2;" width="95.6137" x="426" y="159.5"/><text fill="#171C1F" font-family="sans-serif" font-size="14" lengthAdjust="spacing" textLength="75.6137" x="436" y="184.4659">component</text></g><!--entity control--><g class="entity" data-entity="control" data-source-line="15" data-uid="ent0013" id="entity_control"><ellipse cx="580.8799" cy="169.5" fill="#E4E4E4" rx="12" ry="12" style="stroke:#171C1F;stroke-width:2;"/><polygon fill="#171C1F" points="576.8799,157.5,582.8799,152.5,580.8799,157.5,582.8799,162.5,576.8799,157.5" style="stroke:#171C1F;stroke-width:1;"/><text fill="#171C1F" font-family="sans-serif" font-size="14" lengthAdjust="spacing" textLength="46.7598" x="557.5" y="200.4659">control</text></g><!--entity database--><g class="entity" data-entity="database" data-source-line="16" data-uid="ent0014" id="entity_database"><path d="M11,285.5 C11,275.5 51.2189,275.5 51.2189,275.5 C51.2189,275.5 91.4378,275.5 91.4378,285.5 L91.4378,313.5679 C91.4378,323.5679 51.2189,323.5679 51.2189,323.5679 C51.2189,323.5679 11,323.5679 11,313.5679 L11,285.5" fill="#E4E4E4" style="stroke:#171C1F;stroke-width:2;"/><path d="M11,285.5 C11,295.5 51.2189,295.5 51.2189,295.5 C51.2189,295.5 91.4378,295.5 91.4378,285.5" fill="none" style="stroke:#171C1F;stroke-width:2;"/><text fill="#171C1F" font-family="sans-serif" font-size="14" lengthAdjust="spacing" textLength="60.4378" x="21" y="314.4659">database</text></g><!--entity entity--><g class="entity" data-entity="entity" data-source-line="17" data-uid="ent0015" id="entity_entity"><ellipse cx="145.2039" cy="290" fill="#E4E4E4" rx="12" ry="12" style="stroke:#171C1F;stroke-width:2;"/><line style="stroke:#171C1F;stroke-width:2;" x1="133.2039" x2="157.2039" y1="304" y2="304"/><text fill="#171C1F" font-family="sans-serif" font-size="14" lengthAdjust="spacing" textLength="37.4079" x="126.5" y="320.9659">entity</text></g><!--entity file--><g class="entity" data-entity="file" data-source-line="18" data-uid="ent0016" id="entity_file"><path d="M199,287.5 L199,311.5679 A7.5,7.5 0 0 0 206.5,319.0679 L231.4359,319.0679 A7.5,7.5 0 0 0 238.9359,311.5679 L238.9359,290 L228.9359,280 L206.5,280 A7.5,7.5 0 0 0 199,287.5" fill="#E4E4E4" style="stroke:#171C1F;stroke-width:2;"/><path d="M228.9359,280 L228.9359,282.5 A7.5,7.5 0 0 0 236.4359,290 L238.9359,290" fill="#E4E4E4" style="stroke:#171C1F;stroke-width:2;"/><text fill="#171C1F" font-family="sans-serif" font-size="14" lengthAdjust="spacing" textLength="19.9359" x="209" y="304.9659">file</text></g><!--entity folder--><g class="entity" data-entity="folder" data-source-line="19" data-uid="ent0017" id="entity_folder"><path d="M281.5,271 L312.5,271 A11.25,11.25 0 0 1 320,278.5 L327,292 L336.5,292 A7.5,7.5 0 0 1 344,299.5 L344,320.5679 A7.5,7.5 0 0 1 336.5,328.0679 L281.5,328.0679 A7.5,7.5 0 0 1 274,320.5679 L274,278.5 A7.5,7.5 0 0 1 281.5,271" fill="#E4E4E4" style="stroke:#171C1F;stroke-width:2;"/><line style="stroke:#171C1F;stroke-width:2;" x1="274" x2="327" y1="292" y2="292"/><text fill="#171C1F" font-family="sans-serif" font-size="14" lengthAdjust="spacing" textLength="39.1859" x="284" y="313.9659">folder</text></g><!--entity frame--><g class="entity" data-entity="frame" data-source-line="20" data-uid="ent0018" id="entity_frame"><rect fill="#E4E4E4" height="49.0679" rx="7.5" ry="7.5" style="stroke:#171C1F;stroke-width:2;" width="79.4379" x="379.5" y="275"/><path d="M405.9793,275 L405.9793,280 L398.9793,287 L379.5,287" fill="none" style="stroke:#171C1F;stroke-width:2;"/><text fill="#171C1F" font-family="sans-serif" font-size="14" lengthAdjust="spacing" textLength="39.4379" x="394.5" y="309.9659">frame</text></g><!--entity hexagon--><g class="entity" data-entity="hexagon" data-source-line="21" data-uid="ent0019" id="entity_hexagon"><polygon fill="#E4E4E4" points="608.5,299.5,579.75,285,522.25,285,493.5,299.5,522.25,314,579.75,314,608.5,299.5" style="stroke:#171C1F;stroke-width:2;"/><text fill="#171C1F" font-family="sans-serif" font-size="14" lengthAdjust="spacing" textLength="57.5398" x="522.2699" y="304.9659">hexagon</text></g><!--entity interface--><g class="entity" data-entity="interface" data-source-line="22" data-uid="ent0020" id="entity_interface"><ellipse cx="51" cy="420" fill="#E4E4E4" rx="8" ry="8" style="stroke:#171C1F;stroke-width:2;"/><text fill="#171C1F" font-family="sans-serif" font-size="14" lengthAdjust="spacing" textLength="58.2818" x="21.8591" y="451.9659">interface</text></g><!--entity label--><g class="entity" data-entity="label" data-source-line="23" data-uid="ent0021" id="entity_label"><text fill="#171C1F" font-family="sans-serif" font-size="14" lengthAdjust="spacing" textLength="31.5839" x="133" y="425.4659">label</text></g><!--entity node--><g class="entity" data-entity="node" data-source-line="24" data-uid="ent0022" id="entity_node"><polygon fill="#E4E4E4" points="210,405.5,220,395.5,283.6279,395.5,283.6279,434.5679,273.6279,444.5679,210,444.5679,210,405.5" style="stroke:#171C1F;stroke-width:2;"/><line style="stroke:#171C1F;stroke-width:2;" x1="273.6279" x2="283.6279" y1="405.5" y2="395.5"/><line style="stroke:#171C1F;stroke-width:2;" x1="210" x2="273.6279" y1="405.5" y2="405.5"/><line style="stroke:#171C1F;stroke-width:2;" x1="273.6279" x2="273.6279" y1="405.5" y2="444.5679"/><text fill="#171C1F" font-family="sans-serif" font-size="14" lengthAdjust="spacing" textLength="33.6279" x="225" y="430.4659">node</text></g><!--entity package--><g class="entity" data-entity="package" data-source-line="25" data-uid="ent0023" id="entity_package"><path d="M327,399 L388.7858,399 A11.25,11.25 0 0 1 396.2858,406.5 L403.2858,424.0679 L412.7858,424.0679 A7.5,7.5 0 0 1 420.2858,431.5679 L420.2858,433.5679 A7.5,7.5 0 0 1 412.7858,441.0679 L327,441.0679 A7.5,7.5 0 0 1 319.5,433.5679 L319.5,406.5 A7.5,7.5 0 0 1 327,399" fill="#FFFFFF" style="stroke:#555555;stroke-width:2;"/><line style="stroke:#555555;stroke-width:2;" x1="319.5" x2="403.2858" y1="424.0679" y2="424.0679"/><text fill="#171C1F" font-family="sans-serif" font-size="14" font-weight="bold" lengthAdjust="spacing" textLength="58.7858" x="329.5" y="416.9659">package</text></g><!--entity person--><g class="entity" data-entity="person" data-source-line="26" data-uid="ent0024" id="entity_person"><ellipse cx="489.0579" cy="400.6729" fill="#E4E4E4" rx="10.6729" ry="10.6729" style="stroke:#171C1F;stroke-width:2;"/><rect fill="#E4E4E4" height="39.0679" rx="10.6729" ry="10.6729" style="stroke:#171C1F;stroke-width:2;" width="66.1158" x="456" y="411.3458"/><text fill="#171C1F" font-family="sans-serif" font-size="14" lengthAdjust="spacing" textLength="46.1158" x="466" y="436.3117">person</text></g><!--entity process--><g class="entity" data-entity="process" data-source-line="27" data-uid="ent0025" id="entity_process"><polygon fill="#E4E4E4" points="557.5,400.5,638.3898,400.5,648.3898,420.034,638.3898,439.5679,557.5,439.5679,567.5,420.034" style="stroke:#171C1F;stroke-width:2;"/><text fill="#171C1F" font-family="sans-serif" font-size="14" lengthAdjust="spacing" textLength="50.8898" x="577.5" y="425.4659">process</text></g><!--entity queue--><g class="entity" data-entity="queue" data-source-line="28" data-uid="ent0026" id="entity_queue"><path d="M25,517 L76.7058,517 C81.7058,517 81.7058,531.534 81.7058,531.534 C81.7058,531.534 81.7058,546.0679 76.7058,546.0679 L25,546.0679 C20,546.0679 20,531.534 20,531.534 C20,531.534 20,517 25,517" fill="#E4E4E4" style="stroke:#171C1F;stroke-width:2;"/><path d="M76.7058,517 C71.7058,517 71.7058,531.534 71.7058,531.534 C71.7058,546.0679 76.7058,546.0679 76.7058,546.0679" fill="none" style="stroke:#171C1F;stroke-width:2;"/><text fill="#171C1F" font-family="sans-serif" font-size="14" lengthAdjust="spacing" textLength="41.7058" x="25" y="536.9659">queue</text></g><!--entity rectangle--><g class="entity" data-entity="rectangle" data-source-line="29" data-uid="ent0027" id="entity_rectangle"><rect fill="#FFFFFF" height="39.0679" rx="7.5" ry="7.5" style="stroke:#555555;stroke-width:2;" width="82.0758" x="117" y="512"/><text fill="#171C1F" font-family="sans-serif" font-size="14" lengthAdjust="spacing" textLength="62.0758" x="127" y="536.9659">rectangle</text></g><!--entity stack--><g class="entity" data-entity="stack" data-source-line="30" data-uid="ent0028" id="entity_stack"><rect fill="#E4E4E4" height="39.0679" rx="7.5" ry="7.5" style="stroke:none;stroke-width:2;" width="53.8099" x="249" y="512"/><path d="M234,512 L241.5,512 A7.5,7.5 0 0 1 249,519.5 L249,543.5679 A7.5,7.5 0 0 0 256.5,551.0679 L295.3099,551.0679 A7.5,7.5 0 0 0 302.8099,543.5679 L302.8099,519.5 A7.5,7.5 0 0 1 310.3099,512 L317.8099,512" fill="none" style="stroke:#171C1F;stroke-width:2;"/><text fill="#171C1F" font-family="sans-serif" font-size="14" lengthAdjust="spacing" textLength="33.8099" x="259" y="536.9659">stack</text></g><!--entity storage--><g class="entity" data-entity="storage" data-source-line="31" data-uid="ent0029" id="entity_storage"><rect fill="#E4E4E4" height="39.0679" rx="35" ry="35" style="stroke:#171C1F;stroke-width:2;" width="70.3718" x="353" y="512"/><text fill="#171C1F" font-family="sans-serif" font-size="14" lengthAdjust="spacing" textLength="50.3718" x="363" y="536.9659">storage</text></g><g class="entity" data-entity="usecase" data-source-line="32" data-uid="ent0030" id="entity_usecase"><ellipse cx="507.8387" cy="531.3619" fill="#E4E4E4" rx="49.8387" ry="16.8619" style="stroke:#171C1F;stroke-width:2;"/><text fill="#171C1F" font-family="sans-serif" font-size="14" lengthAdjust="spacing" textLength="52.4298" x="478.6238" y="536.0948">usecase</text></g><g class="entity" data-entity="usecase/" data-source-line="33" data-uid="ent0031" id="entity_usecase/"><ellipse cx="646.7764" cy="531.4034" fill="#E4E4E4" rx="53.7764" ry="16.9034" style="stroke:#171C1F;stroke-width:2;"/><text fill="#171C1F" font-family="sans-serif" font-size="14" lengthAdjust="spacing" textLength="57.6378" x="614.9575" y="536.1363">usecase/</text></g><line style="stroke:#171C1F;stroke-width:2;" x1="696.2666" x2="676.8522" y1="525.5109" y2="544.9253"/><!--SRC=[JP7BSiCW34NtzojKxvjyaunbnrE2N85dch-lU3YJpJaNv14MV9M7F8LCYkbtKCw5LjCdtMxtLidtZnB0eUoQgAkkrAYnvpjDtHDuarIe4MnbNxr0Ly2iPrhONdG51BQ5AX1s2r6e2o7gwOLA18rHsj6PFhBlFmzDzRntyhta_nrf60iNdZaBNG7-rLvUr8LrzpChi6fSnAWBgx7VJoCUyiURZp-CFHKndqVedH1vbaYDIBe8LU3WyEDtGSCunB8twi9X6YHd6iRlAQTG8yo7vBJ5-aOZ8HTlGusUrMhdOPnPGXrp-5hxornfmZy0]--></g></svg>