<svg xmlns="http://www.w3.org/2000/svg" xmlns:xlink="http://www.w3.org/1999/xlink" contentStyleType="text/css" data-diagram-type="CLASS" height="1050px" preserveAspectRatio="none" style="width:966px;height:1050px;background:#FFFFFF;" version="1.1" viewBox="0 0 966 1050" width="966px" zoomAndPan="magnify"><title>Container View:</title><defs/><g><text fill="#171C1F" font-family="sans-serif" font-size="14" font-weight="bold" lengthAdjust="spacing" textLength="110.6696" x="424.0295" y="24.9659">Container View:</text><text fill="#171C1F" font-family="sans-serif" font-size="14" font-weight="bold" lengthAdjust="spacing" textLength="174.9853" x="391.8717" y="44.0339">Internet Banking System</text><!--cluster Internet Banking System--><g class="cluster" data-entity="Internet Banking System" data-source-line="30" data-uid="ent0005" id="cluster_Internet Banking System"><rect fill="#FFFFFF" height="659" rx="7.5" ry="7.5" style="stroke:#555555;stroke-width:2;" width="613" x="12.7657" y="357.1358"/><text fill="#171C1F" font-family="sans-serif" font-size="14" font-style="italic" lengthAdjust="spacing" textLength="115.2196" x="261.6559" y="374.1018">&#171;Software System&#187;</text><text fill="#171C1F" font-family="sans-serif" font-size="14" font-weight="bold" lengthAdjust="spacing" textLength="174.9853" x="231.7731" y="393.1697">Internet Banking System</text></g><!--entity StaticContent--><g class="entity" data-entity="StaticContent" data-source-line="32" data-uid="ent0006" id="entity_StaticContent"><path d="M83.2657,424.1358 L114.2657,424.1358 A11.25,11.25 0 0 1 121.7657,431.6358 L128.7657,445.1358 L270.3811,445.1358 A7.5,7.5 0 0 1 277.8811,452.6358 L277.8811,533.6316 A7.5,7.5 0 0 1 270.3811,541.1316 L83.2657,541.1316 A7.5,7.5 0 0 1 75.7657,533.6316 L75.7657,431.6358 A7.5,7.5 0 0 1 83.2657,424.1358" fill="#98D4CC" style="stroke:#171C1F;stroke-width:2;"/><line style="stroke:#171C1F;stroke-width:2;" x1="75.7657" x2="128.7657" y1="445.1358" y2="445.1358"/><text fill="#171C1F" font-family="sans-serif" font-size="14" font-style="italic" lengthAdjust="spacing" textLength="74.4377" x="134.6045" y="467.1018">&#171;Container&#187;</text><text fill="#171C1F" font-family="sans-serif" font-size="16" font-weight="bold" lengthAdjust="spacing" textLength="114.0962" x="114.7753" y="488.3078">Static Content</text><text fill="#171C1F" font-family="sans-serif" font-size="14" lengthAdjust="spacing" textLength="69.8877" x="136.8795" y="507.9617">[Directory]</text><text fill="#171C1F" font-family="sans-serif" font-size="14" lengthAdjust="spacing" textLength="172.1153" x="85.7657" y="527.0296">HTML, CSS, JavaScript, etc.</text></g><!--entity UI--><g class="entity" data-entity="UI" data-source-line="38" data-uid="ent0007" id="entity_UI"><rect fill="#98D4CC" height="137.1316" rx="7.5" ry="7.5" style="stroke:#171C1F;stroke-width:2;" width="238.7212" x="363.2657" y="414.1358"/><text fill="#171C1F" font-family="sans-serif" font-size="14" font-style="italic" lengthAdjust="spacing" textLength="74.4377" x="445.4074" y="439.1018">&#171;Container&#187;</text><path d="M465.8963,448.4958 A0.75,0.75 0 0 0 465.3863,449.2458 L465.3863,459.7458 A0.75,0.75 0 0 0 466.1363,460.4958 L476.6363,460.4958 A0.75,0.75 0 0 0 477.3863,459.7458 L477.3863,449.2458 A0.75,0.75 0 0 0 476.6363,448.4958 L466.1363,448.4958 A0.75,0.75 0 0 0 466.0013,448.4958 A0.75,0.75 0 0 0 465.9113,448.4958 M467.6363,449.9958 C468.0563,449.9958 468.3863,450.3258 468.3863,450.7458 C468.3863,451.1658 468.0563,451.4958 467.6363,451.4958 C467.2163,451.4958 466.8863,451.1658 466.8863,450.7458 C466.8863,450.3258 467.2163,449.9958 467.6363,449.9958 M470.6363,449.9958 L475.1363,449.9958 C475.5563,449.9958 475.8863,450.3258 475.8863,450.7458 C475.8863,451.1658 475.5563,451.4958 475.1363,451.4958 L470.6363,451.4958 C470.2163,451.4958 469.8863,451.1658 469.8863,450.7458 C469.8863,450.3258 470.2163,449.9958 470.6363,449.9958 M466.8863,452.9958 L475.8863,452.9958 L475.8863,458.9958 L466.8863,458.9958 L466.8863,452.9958" fill="#171C1F"/><text fill="#171C1F" font-family="sans-serif" font-size="16" font-weight="bold" lengthAdjust="spacing" textLength="18.32" x="482.5463" y="460.3078">UI</text><text fill="#171C1F" font-family="sans-serif" font-size="14" lengthAdjust="spacing" textLength="157.8214" x="403.7156" y="479.9617">[JavaScript and Angular]</text><text fill="#171C1F" font-family="sans-serif" font-size="14" lengthAdjust="spacing" textLength="196.9513" x="384.1507" y="499.0296">Single-page app that provides</text><text fill="#171C1F" font-family="sans-serif" font-size="14" lengthAdjust="spacing" textLength="212.4072" x="376.4227" y="518.0976">internet banking functionality to</text><text fill="#171C1F" font-family="sans-serif" font-size="14" lengthAdjust="spacing" textLength="218.7212" x="373.2657" y="537.1655">customers via their web browser.</text></g><!--entity Backend--><g class="entity" data-entity="Backend" data-source-line="46" data-uid="ent0008" id="entity_Backend"><rect fill="#98D4CC" height="118.0637" rx="7.5" ry="7.5" style="stroke:#171C1F;stroke-width:2;" width="249.1931" x="334.2657" y="657.6358"/><text fill="#171C1F" font-family="sans-serif" font-size="14" font-style="italic" lengthAdjust="spacing" textLength="74.4377" x="421.6434" y="682.6018">&#171;Container&#187;</text><path d="M416.5892,691.9958 C416.4992,691.9958 416.4542,692.0558 416.4542,692.1308 L416.4542,703.8458 C416.4542,703.9208 416.5142,703.9808 416.5892,703.9808 L428.3042,703.9808 C428.3792,703.9808 428.4392,703.9208 428.4392,703.8458 L428.4392,692.1308 C428.4392,692.0408 428.3792,691.9958 428.3042,691.9958 L416.5892,691.9958 M418.7042,693.1658 L421.2842,695.7458 L418.7042,698.3258 L417.6242,697.2458 L419.1242,695.7458 L417.6242,694.2458 L418.7042,693.1658 M422.4542,696.4958 L426.9542,696.4958 L426.9542,697.9958 L422.4542,697.9958 L422.4542,696.4958" fill="#171C1F"/><text fill="#171C1F" font-family="sans-serif" font-size="16" font-weight="bold" lengthAdjust="spacing" textLength="68.6561" x="433.6142" y="703.8078">Backend</text><text fill="#171C1F" font-family="sans-serif" font-size="14" lengthAdjust="spacing" textLength="145.9355" x="385.8946" y="723.4617">[Java and Spring Boot]</text><text fill="#171C1F" font-family="sans-serif" font-size="14" lengthAdjust="spacing" textLength="170.0013" x="373.8616" y="742.5296">Provides internet banking</text><text fill="#171C1F" font-family="sans-serif" font-size="14" lengthAdjust="spacing" textLength="229.1931" x="344.2657" y="761.5976">functionality via a JSON/HTTPS API.</text></g><!--entity StatementStore--><g class="entity" data-entity="StatementStore" data-source-line="53" data-uid="ent0009" id="entity_StatementStore"><rect fill="#98D4CC" height="118.0637" rx="35" ry="35" style="stroke:#171C1F;stroke-width:2;" width="240.8911" x="29.2657" y="882.1358"/><text fill="#171C1F" font-family="sans-serif" font-size="14" font-style="italic" lengthAdjust="spacing" textLength="74.4377" x="112.4924" y="907.1018">&#171;Container&#187;</text><text fill="#171C1F" font-family="sans-serif" font-size="16" font-weight="bold" lengthAdjust="spacing" textLength="130.9923" x="84.2151" y="928.3078">Statement Store</text><text fill="#171C1F" font-family="sans-serif" font-size="14" lengthAdjust="spacing" textLength="220.8911" x="39.2657" y="947.9617">[Amazon Web Services S3 Bucket]</text><text fill="#171C1F" font-family="sans-serif" font-size="14" lengthAdjust="spacing" textLength="166.4454" x="66.4886" y="967.0296">Bank account statements</text><text fill="#171C1F" font-family="sans-serif" font-size="14" lengthAdjust="spacing" textLength="142.9534" x="78.2346" y="986.0976">rendered as PDF files.</text></g><!--entity Database--><g class="entity" data-entity="Database" data-source-line="60" data-uid="ent0010" id="entity_Database"><path d="M305.7657,897.1358 C305.7657,887.1358 457.6062,887.1358 457.6062,887.1358 C457.6062,887.1358 609.4466,887.1358 609.4466,897.1358 L609.4466,985.1316 C609.4466,995.1316 457.6062,995.1316 457.6062,995.1316 C457.6062,995.1316 305.7657,995.1316 305.7657,985.1316 L305.7657,897.1358" fill="#98D4CC" style="stroke:#171C1F;stroke-width:2;"/><path d="M305.7657,897.1358 C305.7657,907.1358 457.6062,907.1358 457.6062,907.1358 C457.6062,907.1358 609.4466,907.1358 609.4466,897.1358" fill="none" style="stroke:#171C1F;stroke-width:2;"/><text fill="#171C1F" font-family="sans-serif" font-size="14" font-style="italic" lengthAdjust="spacing" textLength="74.4377" x="420.3873" y="926.1018">&#171;Container&#187;</text><text fill="#171C1F" font-family="sans-serif" font-size="16" font-weight="bold" lengthAdjust="spacing" textLength="75.3121" x="419.9501" y="947.3078">Database</text><text fill="#171C1F" font-family="sans-serif" font-size="14" lengthAdjust="spacing" textLength="176.2313" x="369.4905" y="966.9617">[MySQL Database Schema]</text><text fill="#171C1F" font-family="sans-serif" font-size="14" lengthAdjust="spacing" textLength="283.6809" x="315.7657" y="986.0296">User account information, access, logs, etc.</text></g><!--entity Customer--><g class="entity" data-entity="Customer" data-source-line="10" data-uid="ent0002" id="entity_Customer"><ellipse cx="482.7533" cy="100.4392" fill="#ECCD7D" rx="35.3033" ry="35.3033" style="stroke:#171C1F;stroke-width:2;"/><rect fill="#ECCD7D" height="120.7878" rx="35.3033" ry="35.3033" style="stroke:#171C1F;stroke-width:2;" width="233.9752" x="365.7657" y="135.7425"/><text fill="#171C1F" font-family="sans-serif" font-size="14" font-style="italic" lengthAdjust="spacing" textLength="55.8878" x="454.8094" y="160.7084">&#171;Person&#187;</text><text fill="#171C1F" font-family="sans-serif" font-size="16" font-weight="bold" lengthAdjust="spacing" textLength="140.2083" x="412.6492" y="181.9145">Personal Banking</text><text fill="#171C1F" font-family="sans-serif" font-size="16" font-weight="bold" lengthAdjust="spacing" textLength="77.9362" x="443.7852" y="203.7065">Customer</text><text fill="#171C1F" font-family="sans-serif" font-size="14" lengthAdjust="spacing" textLength="213.9752" x="375.7657" y="223.3604">A customer of the bank with one</text><text fill="#171C1F" font-family="sans-serif" font-size="14" lengthAdjust="spacing" textLength="155.5814" x="404.9626" y="242.4284">or more bank accounts.</text></g><!--entity SimpleEmailService--><g class="entity" data-entity="SimpleEmailService" data-source-line="17" data-uid="ent0003" id="entity_SimpleEmailService"><rect fill="#A5A5A5" height="101.7199" rx="7.5" ry="7.5" style="stroke:#171C1F;stroke-width:2;" width="254.7091" x="642.2657" y="431.6358"/><text fill="#171C1F" font-family="sans-serif" font-size="14" font-style="italic" lengthAdjust="spacing" textLength="169.6934" x="684.7736" y="456.6018">&#171;External Software System&#187;</text><text fill="#171C1F" font-family="sans-serif" font-size="16" font-weight="bold" lengthAdjust="spacing" textLength="173.1684" x="683.0361" y="477.8078">Amazon Web Services</text><text fill="#171C1F" font-family="sans-serif" font-size="16" font-weight="bold" lengthAdjust="spacing" textLength="163.4883" x="687.8761" y="499.5998">Simple Email Service</text><text fill="#171C1F" font-family="sans-serif" font-size="14" lengthAdjust="spacing" textLength="234.7091" x="652.2657" y="519.2538">Cloud-based email service provider.</text></g><!--entity CoreBankingSystem--><g class="entity" data-entity="CoreBankingSystem" data-source-line="23" data-uid="ent0004" id="entity_CoreBankingSystem"><rect fill="#64A0E4" height="137.1316" rx="7.5" ry="7.5" style="stroke:#171C1F;stroke-width:2;" width="232.1972" x="728.7657" y="648.1358"/><text fill="#171C1F" font-family="sans-serif" font-size="14" font-style="italic" lengthAdjust="spacing" textLength="115.2196" x="787.2545" y="673.1018">&#171;Software System&#187;</text><text fill="#171C1F" font-family="sans-serif" font-size="16" font-weight="bold" lengthAdjust="spacing" textLength="169.4883" x="760.1201" y="694.3078">Core Banking System</text><text fill="#171C1F" font-family="sans-serif" font-size="14" lengthAdjust="spacing" textLength="208.2912" x="740.7187" y="713.9617">Handles core banking functions</text><text fill="#171C1F" font-family="sans-serif" font-size="14" lengthAdjust="spacing" textLength="212.1972" x="738.7657" y="733.0296">including customer information,</text><text fill="#171C1F" font-family="sans-serif" font-size="14" lengthAdjust="spacing" textLength="176.5393" x="756.5947" y="752.0976">bank account mangement,</text><text fill="#171C1F" font-family="sans-serif" font-size="14" lengthAdjust="spacing" textLength="111.9296" x="788.8995" y="771.1655">transactions, etc.</text></g><!--link Customer to StaticContent--><g class="link" data-entity-1="Customer" data-entity-2="StaticContent" data-source-line="67" data-uid="lnk11" id="link_Customer_StaticContent"><path codeLine="67" d="M391.3057,256.3958 C381.6557,266.4358 372.0057,276.4858 362.7657,286.1358 C318.5357,332.3258 272.7269,401.4846 235.7369,440.4446" fill="none" id="Customer-to-StaticContent" style="stroke:#171C1F;stroke-width:1;stroke-dasharray:7.0,7.0;"/><polygon fill="#171C1F" points="231.6057,444.7958,240.7034,441.0231,235.0484,441.1698,234.9017,435.5149,231.6057,444.7958" style="stroke:#171C1F;stroke-width:1;"/><text fill="#171C1F" font-family="sans-serif" font-size="13" lengthAdjust="spacing" textLength="110.1621" x="363.7657" y="319.0328">Loads the UI from</text></g><!--link Customer to UI--><g class="link" data-entity-1="Customer" data-entity-2="UI" data-source-line="68" data-uid="lnk12" id="link_Customer_UI"><path codeLine="68" d="M482.7657,256.3458 C482.7657,307.0258 482.7657,362.2558 482.7657,408.0858" fill="none" id="Customer-to-UI" style="stroke:#171C1F;stroke-width:1;stroke-dasharray:7.0,7.0;"/><polygon fill="#171C1F" points="482.7657,414.0858,486.7657,405.0858,482.7657,409.0858,478.7657,405.0858,482.7657,414.0858" style="stroke:#171C1F;stroke-width:1;"/><text fill="#171C1F" font-family="sans-serif" font-size="13" lengthAdjust="spacing" textLength="143.8581" x="483.7657" y="301.0328">Views account balances</text><text fill="#171C1F" font-family="sans-serif" font-size="13" lengthAdjust="spacing" textLength="130.3901" x="490.4997" y="318.7389">and makes payments</text><text fill="#171C1F" font-family="sans-serif" font-size="13" lengthAdjust="spacing" textLength="33.644" x="538.8728" y="336.4449">using</text></g><!--reverse link Customer to SimpleEmailService--><g class="link" data-entity-1="Customer" data-entity-2="SimpleEmailService" data-source-line="69" data-uid="lnk14" id="link_Customer_SimpleEmailService"><path codeLine="69" d="M604.4462,255.0688 C617.0062,266.3688 624.7457,274.1658 635.7657,286.1358 C677.3057,331.2358 715.8857,390.0658 740.8757,431.3658" fill="none" id="Customer-backto-SimpleEmailService" style="stroke:#171C1F;stroke-width:1;stroke-dasharray:7.0,7.0;"/><polygon fill="#171C1F" points="599.9857,251.0558,604.0011,260.049,603.7028,254.4,609.3518,254.1017,599.9857,251.0558" style="stroke:#171C1F;stroke-width:1;"/><text fill="#171C1F" font-family="sans-serif" font-size="13" lengthAdjust="spacing" textLength="99.9441" x="677.7657" y="319.0328">Sends e-mails to</text></g><!--link StaticContent to UI--><g class="link" data-entity-1="StaticContent" data-entity-2="UI" data-source-line="70" data-uid="lnk15" id="link_StaticContent_UI"><path codeLine="70" d="M277.8057,482.6358 C305.1457,482.6358 328.9857,482.6358 357.2257,482.6358" fill="none" id="StaticContent-to-UI" style="stroke:#171C1F;stroke-width:1;stroke-dasharray:7.0,7.0;"/><polygon fill="#171C1F" points="363.2257,482.6358,354.2257,478.6358,358.2257,482.6358,354.2257,486.6358,363.2257,482.6358" style="stroke:#171C1F;stroke-width:1;"/><text fill="#171C1F" font-family="sans-serif" font-size="13" lengthAdjust="spacing" textLength="49.062" x="296.0157" y="475.5328">Delivers</text></g><!--link UI to Backend--><g class="link" data-entity-1="UI" data-entity-2="Backend" data-source-line="71" data-uid="lnk16" id="link_UI_Backend"><path codeLine="71" d="M475.7557,551.3658 C472.2857,584.9358 468.7529,619.0977 465.4229,651.2977" fill="none" id="UI-to-Backend" style="stroke:#171C1F;stroke-width:1;stroke-dasharray:7.0,7.0;"/><polygon fill="#171C1F" points="464.8057,657.2658,469.7103,648.725,465.3201,652.2924,461.7528,647.9021,464.8057,657.2658" style="stroke:#171C1F;stroke-width:1;"/><text fill="#171C1F" font-family="sans-serif" font-size="13" lengthAdjust="spacing" textLength="109.3301" x="472.7657" y="596.0328">Makes API calls to</text><text fill="#171C1F" font-family="sans-serif" font-size="13" lengthAdjust="spacing" textLength="83.2001" x="485.8307" y="613.7389">[JSON/HTTPS]</text></g><!--link Backend to StatementStore--><g class="link" data-entity-1="Backend" data-entity-2="StatementStore" data-source-line="72" data-uid="lnk17" id="link_Backend_StatementStore"><path codeLine="72" d="M354.6457,775.7958 C334.3757,788.1658 313.5857,801.5858 294.7657,815.1358 C266.5757,835.4258 241.7434,856.0146 216.8834,877.9646" fill="none" id="Backend-to-StatementStore" style="stroke:#171C1F;stroke-width:1;stroke-dasharray:7.0,7.0;"/><polygon fill="#171C1F" points="212.3857,881.9358,221.7798,878.9775,216.1338,878.6265,216.4848,872.9805,212.3857,881.9358" style="stroke:#171C1F;stroke-width:1;"/><text fill="#171C1F" font-family="sans-serif" font-size="13" lengthAdjust="spacing" textLength="153.3871" x="295.7657" y="830.0328">Reads from and writes to</text><text fill="#171C1F" font-family="sans-serif" font-size="13" lengthAdjust="spacing" textLength="121.9271" x="311.4957" y="847.7389">[AWS S3 API/HTTPS]</text></g><!--link Backend to Database--><g class="link" data-entity-1="Backend" data-entity-2="Database" data-source-line="73" data-uid="lnk18" id="link_Backend_Database"><path codeLine="73" d="M458.5057,775.8058 C458.3457,810.1858 458.1826,847.3959 458.0326,880.8759" fill="none" id="Backend-to-Database" style="stroke:#171C1F;stroke-width:1;stroke-dasharray:7.0,7.0;"/><polygon fill="#171C1F" points="458.0057,886.8758,462.046,877.8938,458.0281,881.8759,454.0461,877.858,458.0057,886.8758" style="stroke:#171C1F;stroke-width:1;"/><text fill="#171C1F" font-family="sans-serif" font-size="13" lengthAdjust="spacing" textLength="153.3871" x="458.7657" y="830.0328">Reads from and writes to</text><text fill="#171C1F" font-family="sans-serif" font-size="13" lengthAdjust="spacing" textLength="131.7162" x="469.6012" y="847.7389">[MySQL protocol/TLS]</text></g><!--reverse link SimpleEmailService to Backend--><g class="link" data-entity-1="SimpleEmailService" data-entity-2="Backend" data-source-line="74" data-uid="lnk20" id="link_SimpleEmailService_Backend"><path codeLine="74" d="M698.3426,537.5149 C664.7026,562.8449 628.0157,590.3858 590.7657,618.1358 C573.6257,630.9058 555.2057,644.5558 537.7157,657.4858" fill="none" id="SimpleEmailService-backto-Backend" style="stroke:#171C1F;stroke-width:1;stroke-dasharray:7.0,7.0;"/><polygon fill="#171C1F" points="703.1357,533.9058,693.5399,536.1241,699.1414,536.9134,698.3521,542.5149,703.1357,533.9058" style="stroke:#171C1F;stroke-width:1;"/><text fill="#171C1F" font-family="sans-serif" font-size="13" lengthAdjust="spacing" textLength="109.3301" x="640.7657" y="596.0328">Makes API calls to</text><text fill="#171C1F" font-family="sans-serif" font-size="13" lengthAdjust="spacing" textLength="78.7021" x="656.0797" y="613.7389">[XML/HTTPS]</text></g><!--link Backend to CoreBankingSystem--><g class="link" data-entity-1="Backend" data-entity-2="CoreBankingSystem" data-source-line="75" data-uid="lnk21" id="link_Backend_CoreBankingSystem"><path codeLine="75" d="M583.2857,716.6358 C629.9957,716.6358 676.8557,716.6358 722.7657,716.6358" fill="none" id="Backend-to-CoreBankingSystem" style="stroke:#171C1F;stroke-width:1;stroke-dasharray:7.0,7.0;"/><polygon fill="#171C1F" points="728.7657,716.6358,719.7657,712.6358,723.7657,716.6358,719.7657,720.6358,728.7657,716.6358" style="stroke:#171C1F;stroke-width:1;"/><text fill="#171C1F" font-family="sans-serif" font-size="13" lengthAdjust="spacing" textLength="109.3301" x="601.5157" y="691.5328">Makes API calls to</text><text fill="#171C1F" font-family="sans-serif" font-size="13" lengthAdjust="spacing" textLength="78.7021" x="616.8297" y="709.2389">[XML/HTTPS]</text></g><text fill="#171C1F" font-family="sans-serif" font-size="14" lengthAdjust="spacing" textLength="956.7286" x="1" y="1037.1018">The container diagram for the Internet Banking System | PlantUML implementation, original by Simon Brown | c4model.com | License: CC BY 4.0</text><!--SRC=[ZLLTSnet57tVNt73Gv_ifPrayi1ic06SZ9s1X5IuQSVsmqKhiCPQQKVIGaZQ_zuhxGSOGrgUMDslSyuzsdtb7qKXm0flpIKtw3oih2aWJVinule7eIH9lFHAG6zYj4UfXOK_fDWExlMDzi9guM6C-adgDR2TywBe9HnBBus6tk9H0E_ASebhYmMiZ0KQ16VguM-OAzJ-TZO5MPIA4567qF02Z9LhgL71SWTC5ZHZRCrMKmb_KvXSg9IRq60gkT1E360oWV5Vy2RzjKT4Ic4TbKmgvqr1WB9i7a-6GxXB0DwzW_gP-ZUGwjEsW9v6mDjgiueibfG9M-aVmMX16KIkCBOvHyvDfRrBauSa8MWbvMWVe1ElzmLAnOJT45Z2ylvRa8DcCxFoMwGMjHvxTAC2lnF-hs89JPch0tK_Y0tR44KcobJvvHATo474c6kcbTPiP2xi4Qu90M-ODxl8ihDeGlBHwYXmZJfNmj7Q6mr2T5Lf7XOOu4hDLPM7qqv9gSaIHRrYoZXK3WhKw-Y04F4MjSEwrGK8poF-4laJhicXvmnvaiKFwhSoYaG05kp5Wx-325dMERqXMsiSaw39YgTtLz8AxetTFSJdwyLiUW4JnYxW8swGSIjBt-048AG0UwrlRyvDofpyBWQ_lHrclop9tRIpOTOFPqCggWVlsmFf3IEzhXJQ6WKZvafSba4IB4ioAVfsuIvco5Qdu_sWadu7tiIiTZqEDXA3rQM5BLclmNI2qfWM8GZEV_EY-KMunnsnfdJFBl9YfGtmniRucjkyeV62Gem-fn5G8tnadp_rhnUBEOFH_AO3JTHi42XiDTgB-M3Od-m-Pa5Cgr6Uk8t0NiEu8YODtF6XartRf5w29Rh2qir41_Eh3x2IT6qwV3bw31SNhje_Pw2ryHhJRCU-JFSrZDFx76iijxIp3ilXZGk7mj5zKcRj3jpw3xqnkrTbcgV3etiIVmEO6inTV1EIeyDtvAY8Jez_0-Y5JuZhu2oHNlW4ubw7hHVuH5AMk8jYtUlAqO9xoOcNPbhHW6xSWFQW2Oku33ak-FWvujI-m3E0Aw7aXboUK202Rbry2lOiGYCZ0KSLHzphkxt57df9Mzq9Tk2kjill8aWMlxc1xzPABvfUewyic8WcdExOhVOvhfzqh2r1zzyRRbH_CNtMCmXuGjYpNF-SJLy22xA-_7JyloR9lm00]--></g></svg>