<svg xmlns="http://www.w3.org/2000/svg" xmlns:xlink="http://www.w3.org/1999/xlink" contentStyleType="text/css" data-diagram-type="CLASS" height="1050px" preserveAspectRatio="none" style="width:961px;height:1050px;background:#FFFFFF;" version="1.1" viewBox="0 0 961 1050" width="961px" zoomAndPan="magnify"><title>Container View:</title><defs/><g><text fill="#171C1F" font-family="sans-serif" font-size="14" font-weight="bold" lengthAdjust="spacing" textLength="110.6696" x="418.2638" y="24.9659">Container View:</text><text fill="#171C1F" font-family="sans-serif" font-size="14" font-weight="bold" lengthAdjust="spacing" textLength="174.9853" x="386.1059" y="44.0339">Internet Banking System</text><!--cluster Internet Banking System--><g class="cluster" data-entity="Internet Banking System" data-source-line="30" data-uid="ent0005" id="cluster_Internet Banking System"><rect fill="#FFFFFF" height="659" rx="7.5" ry="7.5" style="stroke:#555555;stroke-width:2;" width="613" x="7" y="357.1358"/><text fill="#171C1F" font-family="sans-serif" font-size="14" font-style="italic" lengthAdjust="spacing" textLength="115.2196" x="255.8902" y="374.1018">&#171;Software System&#187;</text><text fill="#171C1F" font-family="sans-serif" font-size="14" font-weight="bold" lengthAdjust="spacing" textLength="174.9853" x="226.0073" y="393.1697">Internet Banking System</text></g><!--entity StaticContent--><g class="entity" data-entity="StaticContent" data-source-line="32" data-uid="ent0006" id="entity_StaticContent"><path d="M77.5,424.1358 L108.5,424.1358 A11.25,11.25 0 0 1 116,431.6358 L123,445.1358 L264.6153,445.1358 A7.5,7.5 0 0 1 272.1153,452.6358 L272.1153,533.6316 A7.5,7.5 0 0 1 264.6153,541.1316 L77.5,541.1316 A7.5,7.5 0 0 1 70,533.6316 L70,431.6358 A7.5,7.5 0 0 1 77.5,424.1358" fill="#98D4CC" style="stroke:#171C1F;stroke-width:2;"/><line style="stroke:#171C1F;stroke-width:2;" x1="70" x2="123" y1="445.1358" y2="445.1358"/><text fill="#171C1F" font-family="sans-serif" font-size="14" font-style="italic" lengthAdjust="spacing" textLength="74.4377" x="128.8388" y="467.1018">&#171;Container&#187;</text><text fill="#171C1F" font-family="sans-serif" font-size="16" font-weight="bold" lengthAdjust="spacing" textLength="114.0962" x="109.0096" y="488.3078">Static Content</text><text fill="#171C1F" font-family="sans-serif" font-size="14" lengthAdjust="spacing" textLength="69.8877" x="131.1138" y="507.9617">[Directory]</text><text fill="#171C1F" font-family="sans-serif" font-size="14" lengthAdjust="spacing" textLength="172.1153" x="80" y="527.0296">HTML, CSS, JavaScript, etc.</text></g><!--entity UI--><g class="entity" data-entity="UI" data-source-line="38" data-uid="ent0007" id="entity_UI"><rect fill="#98D4CC" height="137.1316" rx="7.5" ry="7.5" style="stroke:#171C1F;stroke-width:2;" width="238.7212" x="357.5" y="414.1358"/><text fill="#171C1F" font-family="sans-serif" font-size="14" font-style="italic" lengthAdjust="spacing" textLength="74.4377" x="439.6417" y="439.1018">&#171;Container&#187;</text><path d="M460.1306,448.4958 A0.75,0.75 0 0 0 459.6206,449.2458 L459.6206,459.7458 A0.75,0.75 0 0 0 460.3706,460.4958 L470.8706,460.4958 A0.75,0.75 0 0 0 471.6206,459.7458 L471.6206,449.2458 A0.75,0.75 0 0 0 470.8706,448.4958 L460.3706,448.4958 A0.75,0.75 0 0 0 460.2356,448.4958 A0.75,0.75 0 0 0 460.1456,448.4958 M461.8706,449.9958 C462.2906,449.9958 462.6206,450.3258 462.6206,450.7458 C462.6206,451.1658 462.2906,451.4958 461.8706,451.4958 C461.4506,451.4958 461.1206,451.1658 461.1206,450.7458 C461.1206,450.3258 461.4506,449.9958 461.8706,449.9958 M464.8706,449.9958 L469.3706,449.9958 C469.7906,449.9958 470.1206,450.3258 470.1206,450.7458 C470.1206,451.1658 469.7906,451.4958 469.3706,451.4958 L464.8706,451.4958 C464.4506,451.4958 464.1206,451.1658 464.1206,450.7458 C464.1206,450.3258 464.4506,449.9958 464.8706,449.9958 M461.1206,452.9958 L470.1206,452.9958 L470.1206,458.9958 L461.1206,458.9958 L461.1206,452.9958" fill="#171C1F"/><text fill="#171C1F" font-family="sans-serif" font-size="16" font-weight="bold" lengthAdjust="spacing" textLength="18.32" x="476.7806" y="460.3078">UI</text><text fill="#171C1F" font-family="sans-serif" font-size="14" lengthAdjust="spacing" textLength="157.8214" x="397.9499" y="479.9617">[JavaScript and Angular]</text><text fill="#171C1F" font-family="sans-serif" font-size="14" lengthAdjust="spacing" textLength="196.9513" x="378.3849" y="499.0296">Single-page app that provides</text><text fill="#171C1F" font-family="sans-serif" font-size="14" lengthAdjust="spacing" textLength="212.4072" x="370.657" y="518.0976">internet banking functionality to</text><text fill="#171C1F" font-family="sans-serif" font-size="14" lengthAdjust="spacing" textLength="218.7212" x="367.5" y="537.1655">customers via their web browser.</text></g><!--entity Backend--><g class="entity" data-entity="Backend" data-source-line="46" data-uid="ent0008" id="entity_Backend"><rect fill="#98D4CC" height="118.0637" rx="7.5" ry="7.5" style="stroke:#171C1F;stroke-width:2;" width="249.1931" x="328.5" y="657.6358"/><text fill="#171C1F" font-family="sans-serif" font-size="14" font-style="italic" lengthAdjust="spacing" textLength="74.4377" x="415.8777" y="682.6018">&#171;Container&#187;</text><path d="M410.8235,691.9958 C410.7335,691.9958 410.6885,692.0558 410.6885,692.1308 L410.6885,703.8458 C410.6885,703.9208 410.7485,703.9808 410.8235,703.9808 L422.5385,703.9808 C422.6135,703.9808 422.6735,703.9208 422.6735,703.8458 L422.6735,692.1308 C422.6735,692.0408 422.6135,691.9958 422.5385,691.9958 L410.8235,691.9958 M412.9385,693.1658 L415.5185,695.7458 L412.9385,698.3258 L411.8585,697.2458 L413.3585,695.7458 L411.8585,694.2458 L412.9385,693.1658 M416.6885,696.4958 L421.1885,696.4958 L421.1885,697.9958 L416.6885,697.9958 L416.6885,696.4958" fill="#171C1F"/><text fill="#171C1F" font-family="sans-serif" font-size="16" font-weight="bold" lengthAdjust="spacing" textLength="68.6561" x="427.8485" y="703.8078">Backend</text><text fill="#171C1F" font-family="sans-serif" font-size="14" lengthAdjust="spacing" textLength="145.9355" x="380.1288" y="723.4617">[Java and Spring Boot]</text><text fill="#171C1F" font-family="sans-serif" font-size="14" lengthAdjust="spacing" textLength="170.0013" x="368.0959" y="742.5296">Provides internet banking</text><text fill="#171C1F" font-family="sans-serif" font-size="14" lengthAdjust="spacing" textLength="229.1931" x="338.5" y="761.5976">functionality via a JSON/HTTPS API.</text></g><!--entity StatementStore--><g class="entity" data-entity="StatementStore" data-source-line="53" data-uid="ent0009" id="entity_StatementStore"><rect fill="#98D4CC" height="118.0637" rx="7.5" ry="7.5" style="stroke:#171C1F;stroke-width:2;" width="240.8911" x="23.5" y="882.1358"/><text fill="#171C1F" font-family="sans-serif" font-size="14" font-style="italic" lengthAdjust="spacing" textLength="74.4377" x="106.7267" y="907.1018">&#171;Container&#187;</text><text fill="#171C1F" font-family="sans-serif" font-size="16" font-weight="bold" lengthAdjust="spacing" textLength="130.9923" x="78.4494" y="928.3078">Statement Store</text><text fill="#171C1F" font-family="sans-serif" font-size="14" lengthAdjust="spacing" textLength="220.8911" x="33.5" y="947.9617">[Amazon Web Services S3 Bucket]</text><text fill="#171C1F" font-family="sans-serif" font-size="14" lengthAdjust="spacing" textLength="166.4454" x="60.7229" y="967.0296">Bank account statements</text><text fill="#171C1F" font-family="sans-serif" font-size="14" lengthAdjust="spacing" textLength="142.9534" x="72.4688" y="986.0976">rendered as PDF files.</text></g><!--entity Database--><g class="entity" data-entity="Database" data-source-line="60" data-uid="ent0010" id="entity_Database"><path d="M300,897.1358 C300,887.1358 451.8405,887.1358 451.8405,887.1358 C451.8405,887.1358 603.6809,887.1358 603.6809,897.1358 L603.6809,985.1316 C603.6809,995.1316 451.8405,995.1316 451.8405,995.1316 C451.8405,995.1316 300,995.1316 300,985.1316 L300,897.1358" fill="#98D4CC" style="stroke:#171C1F;stroke-width:2;"/><path d="M300,897.1358 C300,907.1358 451.8405,907.1358 451.8405,907.1358 C451.8405,907.1358 603.6809,907.1358 603.6809,897.1358" fill="none" style="stroke:#171C1F;stroke-width:2;"/><text fill="#171C1F" font-family="sans-serif" font-size="14" font-style="italic" lengthAdjust="spacing" textLength="74.4377" x="414.6216" y="926.1018">&#171;Container&#187;</text><text fill="#171C1F" font-family="sans-serif" font-size="16" font-weight="bold" lengthAdjust="spacing" textLength="75.3121" x="414.1844" y="947.3078">Database</text><text fill="#171C1F" font-family="sans-serif" font-size="14" lengthAdjust="spacing" textLength="176.2313" x="363.7248" y="966.9617">[MySQL Database Schema]</text><text fill="#171C1F" font-family="sans-serif" font-size="14" lengthAdjust="spacing" textLength="283.6809" x="310" y="986.0296">User account information, access, logs, etc.</text></g><!--entity Customer--><g class="entity" data-entity="Customer" data-source-line="10" data-uid="ent0002" id="entity_Customer"><ellipse cx="476.9876" cy="100.4392" fill="#ECCD7D" rx="35.3033" ry="35.3033" style="stroke:#171C1F;stroke-width:2;"/><rect fill="#ECCD7D" height="120.7878" rx="35.3033" ry="35.3033" style="stroke:#171C1F;stroke-width:2;" width="233.9752" x="360" y="135.7425"/><text fill="#171C1F" font-family="sans-serif" font-size="14" font-style="italic" lengthAdjust="spacing" textLength="55.8878" x="449.0437" y="160.7084">&#171;Person&#187;</text><text fill="#171C1F" font-family="sans-serif" font-size="16" font-weight="bold" lengthAdjust="spacing" textLength="140.2083" x="406.8834" y="181.9145">Personal Banking</text><text fill="#171C1F" font-family="sans-serif" font-size="16" font-weight="bold" lengthAdjust="spacing" textLength="77.9362" x="438.0195" y="203.7065">Customer</text><text fill="#171C1F" font-family="sans-serif" font-size="14" lengthAdjust="spacing" textLength="213.9752" x="370" y="223.3604">A customer of the bank with one</text><text fill="#171C1F" font-family="sans-serif" font-size="14" lengthAdjust="spacing" textLength="155.5814" x="399.1969" y="242.4284">or more bank accounts.</text></g><!--entity SimpleEmailService--><g class="entity" data-entity="SimpleEmailService" data-source-line="17" data-uid="ent0003" id="entity_SimpleEmailService"><rect fill="#8B8B8B" height="101.7199" rx="7.5" ry="7.5" style="stroke:#171C1F;stroke-width:2;" width="254.7091" x="636.5" y="431.6358"/><text fill="#171C1F" font-family="sans-serif" font-size="14" font-style="italic" lengthAdjust="spacing" textLength="169.6934" x="679.0079" y="456.6018">&#171;External Software System&#187;</text><text fill="#171C1F" font-family="sans-serif" font-size="16" font-weight="bold" lengthAdjust="spacing" textLength="173.1684" x="677.2704" y="477.8078">Amazon Web Services</text><text fill="#171C1F" font-family="sans-serif" font-size="16" font-weight="bold" lengthAdjust="spacing" textLength="163.4883" x="682.1104" y="499.5998">Simple Email Service</text><text fill="#171C1F" font-family="sans-serif" font-size="14" lengthAdjust="spacing" textLength="234.7091" x="646.5" y="519.2538">Cloud-based email service provider.</text></g><!--entity CoreBankingSystem--><g class="entity" data-entity="CoreBankingSystem" data-source-line="23" data-uid="ent0004" id="entity_CoreBankingSystem"><rect fill="#5E8FDA" height="137.1316" rx="7.5" ry="7.5" style="stroke:#171C1F;stroke-width:2;" width="232.1972" x="723" y="648.1358"/><text fill="#171C1F" font-family="sans-serif" font-size="14" font-style="italic" lengthAdjust="spacing" textLength="115.2196" x="781.4888" y="673.1018">&#171;Software System&#187;</text><text fill="#171C1F" font-family="sans-serif" font-size="16" font-weight="bold" lengthAdjust="spacing" textLength="169.4883" x="754.3544" y="694.3078">Core Banking System</text><text fill="#171C1F" font-family="sans-serif" font-size="14" lengthAdjust="spacing" textLength="208.2912" x="734.953" y="713.9617">Handles core banking functions</text><text fill="#171C1F" font-family="sans-serif" font-size="14" lengthAdjust="spacing" textLength="212.1972" x="733" y="733.0296">including customer information,</text><text fill="#171C1F" font-family="sans-serif" font-size="14" lengthAdjust="spacing" textLength="176.5393" x="750.8289" y="752.0976">bank account mangement,</text><text fill="#171C1F" font-family="sans-serif" font-size="14" lengthAdjust="spacing" textLength="111.9296" x="783.1338" y="771.1655">transactions, etc.</text></g><!--link Customer to StaticContent--><g class="link" data-entity-1="Customer" data-entity-2="StaticContent" data-source-line="67" data-uid="lnk11" id="link_Customer_StaticContent"><path codeLine="67" d="M385.54,256.3958 C375.89,266.4358 366.24,276.4858 357,286.1358 C312.77,332.3258 266.9612,401.4846 229.9712,440.4446" fill="none" id="Customer-to-StaticContent" style="stroke:#171C1F;stroke-width:1;stroke-dasharray:7.0,7.0;"/><polygon fill="#171C1F" points="225.84,444.7958,234.9376,441.0231,229.2827,441.1698,229.136,435.5149,225.84,444.7958" style="stroke:#171C1F;stroke-width:1;"/><text fill="#171C1F" font-family="sans-serif" font-size="13" lengthAdjust="spacing" textLength="110.1621" x="358" y="319.0328">Loads the UI from</text></g><!--link Customer to UI--><g class="link" data-entity-1="Customer" data-entity-2="UI" data-source-line="68" data-uid="lnk12" id="link_Customer_UI"><path codeLine="68" d="M477,256.3458 C477,307.0258 477,362.2558 477,408.0858" fill="none" id="Customer-to-UI" style="stroke:#171C1F;stroke-width:1;stroke-dasharray:7.0,7.0;"/><polygon fill="#171C1F" points="477,414.0858,481,405.0858,477,409.0858,473,405.0858,477,414.0858" style="stroke:#171C1F;stroke-width:1;"/><text fill="#171C1F" font-family="sans-serif" font-size="13" lengthAdjust="spacing" textLength="143.8581" x="478" y="301.0328">Views account balances</text><text fill="#171C1F" font-family="sans-serif" font-size="13" lengthAdjust="spacing" textLength="130.3901" x="484.734" y="318.7389">and makes payments</text><text fill="#171C1F" font-family="sans-serif" font-size="13" lengthAdjust="spacing" textLength="33.644" x="533.107" y="336.4449">using</text></g><!--reverse link Customer to SimpleEmailService--><g class="link" data-entity-1="Customer" data-entity-2="SimpleEmailService" data-source-line="69" data-uid="lnk14" id="link_Customer_SimpleEmailService"><path codeLine="69" d="M598.6805,255.0688 C611.2405,266.3688 618.98,274.1658 630,286.1358 C671.54,331.2358 710.12,390.0658 735.11,431.3658" fill="none" id="Customer-backto-SimpleEmailService" style="stroke:#171C1F;stroke-width:1;stroke-dasharray:7.0,7.0;"/><polygon fill="#171C1F" points="594.22,251.0558,598.2354,260.049,597.9371,254.4,603.586,254.1017,594.22,251.0558" style="stroke:#171C1F;stroke-width:1;"/><text fill="#171C1F" font-family="sans-serif" font-size="13" lengthAdjust="spacing" textLength="99.9441" x="672" y="319.0328">Sends e-mails to</text></g><!--link StaticContent to UI--><g class="link" data-entity-1="StaticContent" data-entity-2="UI" data-source-line="70" data-uid="lnk15" id="link_StaticContent_UI"><path codeLine="70" d="M272.04,482.6358 C299.38,482.6358 323.22,482.6358 351.46,482.6358" fill="none" id="StaticContent-to-UI" style="stroke:#171C1F;stroke-width:1;stroke-dasharray:7.0,7.0;"/><polygon fill="#171C1F" points="357.46,482.6358,348.46,478.6358,352.46,482.6358,348.46,486.6358,357.46,482.6358" style="stroke:#171C1F;stroke-width:1;"/><text fill="#171C1F" font-family="sans-serif" font-size="13" lengthAdjust="spacing" textLength="49.062" x="290.25" y="475.5328">Delivers</text></g><!--link UI to Backend--><g class="link" data-entity-1="UI" data-entity-2="Backend" data-source-line="71" data-uid="lnk16" id="link_UI_Backend"><path codeLine="71" d="M469.99,551.3658 C466.52,584.9358 462.9872,619.0977 459.6572,651.2977" fill="none" id="UI-to-Backend" style="stroke:#171C1F;stroke-width:1;stroke-dasharray:7.0,7.0;"/><polygon fill="#171C1F" points="459.04,657.2658,463.9446,648.725,459.5543,652.2924,455.987,647.9021,459.04,657.2658" style="stroke:#171C1F;stroke-width:1;"/><text fill="#171C1F" font-family="sans-serif" font-size="13" lengthAdjust="spacing" textLength="109.3301" x="467" y="596.0328">Makes API calls to</text><text fill="#171C1F" font-family="sans-serif" font-size="13" lengthAdjust="spacing" textLength="83.2001" x="480.065" y="613.7389">[JSON/HTTPS]</text></g><!--link Backend to StatementStore--><g class="link" data-entity-1="Backend" data-entity-2="StatementStore" data-source-line="72" data-uid="lnk17" id="link_Backend_StatementStore"><path codeLine="72" d="M348.88,775.7958 C328.61,788.1658 307.82,801.5858 289,815.1358 C260.81,835.4258 235.9777,856.0146 211.1177,877.9646" fill="none" id="Backend-to-StatementStore" style="stroke:#171C1F;stroke-width:1;stroke-dasharray:7.0,7.0;"/><polygon fill="#171C1F" points="206.62,881.9358,216.014,878.9775,210.3681,878.6265,210.7191,872.9805,206.62,881.9358" style="stroke:#171C1F;stroke-width:1;"/><text fill="#171C1F" font-family="sans-serif" font-size="13" lengthAdjust="spacing" textLength="153.3871" x="290" y="830.0328">Reads from and writes to</text><text fill="#171C1F" font-family="sans-serif" font-size="13" lengthAdjust="spacing" textLength="121.9271" x="305.73" y="847.7389">[AWS S3 API/HTTPS]</text></g><!--link Backend to Database--><g class="link" data-entity-1="Backend" data-entity-2="Database" data-source-line="73" data-uid="lnk18" id="link_Backend_Database"><path codeLine="73" d="M452.74,775.8058 C452.58,810.1858 452.4169,847.3959 452.2669,880.8759" fill="none" id="Backend-to-Database" style="stroke:#171C1F;stroke-width:1;stroke-dasharray:7.0,7.0;"/><polygon fill="#171C1F" points="452.24,886.8758,456.2803,877.8938,452.2624,881.8759,448.2804,877.858,452.24,886.8758" style="stroke:#171C1F;stroke-width:1;"/><text fill="#171C1F" font-family="sans-serif" font-size="13" lengthAdjust="spacing" textLength="153.3871" x="453" y="830.0328">Reads from and writes to</text><text fill="#171C1F" font-family="sans-serif" font-size="13" lengthAdjust="spacing" textLength="131.7162" x="463.8355" y="847.7389">[MySQL protocol/TLS]</text></g><!--reverse link SimpleEmailService to Backend--><g class="link" data-entity-1="SimpleEmailService" data-entity-2="Backend" data-source-line="74" data-uid="lnk20" id="link_SimpleEmailService_Backend"><path codeLine="74" d="M692.5768,537.5149 C658.9368,562.8449 622.25,590.3858 585,618.1358 C567.86,630.9058 549.44,644.5558 531.95,657.4858" fill="none" id="SimpleEmailService-backto-Backend" style="stroke:#171C1F;stroke-width:1;stroke-dasharray:7.0,7.0;"/><polygon fill="#171C1F" points="697.37,533.9058,687.7742,536.1241,693.3757,536.9134,692.5863,542.5149,697.37,533.9058" style="stroke:#171C1F;stroke-width:1;"/><text fill="#171C1F" font-family="sans-serif" font-size="13" lengthAdjust="spacing" textLength="109.3301" x="635" y="596.0328">Makes API calls to</text><text fill="#171C1F" font-family="sans-serif" font-size="13" lengthAdjust="spacing" textLength="78.7021" x="650.314" y="613.7389">[XML/HTTPS]</text></g><!--link Backend to CoreBankingSystem--><g class="link" data-entity-1="Backend" data-entity-2="CoreBankingSystem" data-source-line="75" data-uid="lnk21" id="link_Backend_CoreBankingSystem"><path codeLine="75" d="M577.52,716.6358 C624.23,716.6358 671.09,716.6358 717,716.6358" fill="none" id="Backend-to-CoreBankingSystem" style="stroke:#171C1F;stroke-width:1;stroke-dasharray:7.0,7.0;"/><polygon fill="#171C1F" points="723,716.6358,714,712.6358,718,716.6358,714,720.6358,723,716.6358" style="stroke:#171C1F;stroke-width:1;"/><text fill="#171C1F" font-family="sans-serif" font-size="13" lengthAdjust="spacing" textLength="109.3301" x="595.75" y="691.5328">Makes API calls to</text><text fill="#171C1F" font-family="sans-serif" font-size="13" lengthAdjust="spacing" textLength="78.7021" x="611.064" y="709.2389">[XML/HTTPS]</text></g><text fill="#171C1F" font-family="sans-serif" font-size="14" lengthAdjust="spacing" textLength="703.3994" x="121.8989" y="1037.1018">The container diagram for the Internet Banking System | Simon Brown | c4model.com | License: CC BY 4.0</text><!--SRC=[ZPLDSnev48Rlyoiw7FPa3xkLL0xKX2h0ITafd90LsUoMxKEZ4LXbZJGbQI0uc_-UbkO3Z2499qRzzNJtgvaN_buK0gpmrfnpWyx3qfe2qhGVBQw_PqgIn4kl1FGcHdkKMbZuHuhDu5PVQI-i5Xx6g1-aNW7REY-ANiAnzD9ewCtl1V0kB9UuibZ0qbYWGd0Y7lu79WiA7rkpqVJ4NnKc5ohb9jYcaWljn00c4nZ_1w_IFtl4M0hhA6HIEMyAgfLbitWo7C9D0l3c3TJFgDfgzMaRG4yZu6sqMKR01Nd2HlfxC5gG1t4NnZRdoBcfj7TfSfSaX5QIZ_O1lLJYRO5ICM7N14iiRx-6JgasCqk_GKfHjxgZ6nNuIFnVn0AQC5SRwdmG4xOciaoKgVBp1JgHWuWsrrGhhLdBNDW3hWc1DvqtOywoapJ1-M0hPBX4dIlXQAFD389rMMaUbXrmfUQgoiDfDqcfQTi51eypyjYV71IeLoGtxOF5MzGEwrHd83oF_2No1roH-4vfxMWNtoZVqYWQ0Z1FjNcGRXX2bdKYRfgjPnoTeF6AfpSNqWhkZTtUnUVB-VNq32QCdS5xN2FZLfQ-uGGWKe3Th3zVdQgKEVae1d-z7cP_B4ZTjBDXrWzdGmgg2-_I0yqRHdfLARGr1QFEbJWlmqYmB4cawDk5k-WXspaTxWULz5lm9dgrwt6mbXYaBYriI7eDqv6MnhG8GJY_xelg5vBATOqreRlkOb-ij05lR8olUvirRJnh8LgVjX6e4TwpZn_wb_FvZC5eTdK4Ekmr2epv8DcVR3zwGNIhEO_SHs0lOLnHBmtmU5_BharIhy5ImyBItKG7iujti9HqSJh273s6gmiNxPyJQAszPhhUia_JNGpZzBB6ckKpRQrZsRzpuL0ukb7AhDoUNh_JExDxMQPvEZouAV4tWAd1tCLt8MawV2GEWkZqy3U0NlW-k0vdWGerGTpgiFS27sYK9MxZi6vrvMZ5lUJ8QpEjg41NRa1xqCGYpeEF2qf-IfpQPpm3k11Ahadd2HaYSAlZOzZN4Osa11nLB76hRtOYk-ibRNGti3rrjLd-5c5ayOCQ-jrOwKMJQ_I51H5HXUCPkzK-vVf9nbeIz0RmXXlLdq-Vv0m3F3BOaxt-Uprz3XR6-lpZyNj9aXy0]--></g></svg>